M48
; DRILL file {KiCad (5.1.5)-3} date 4/30/2020 9:32:47 PM
; FORMAT={-:-/ absolute / inch / decimal}
; #@! TF.CreationDate,2020-04-30T21:32:47-07:00
; #@! TF.GenerationSoftware,Kicad,Pcbnew,(5.1.5)-3
FMAT,2
INCH
T1C0.0130
T2C0.0138
T3C0.0157
T4C0.0200
T5C0.0300
T6C0.0307
T7C0.0315
T8C0.0320
T9C0.0354
T10C0.0380
T11C0.0394
T12C0.0400
T13C0.0512
T14C0.1562
%
G90
G05
T1
X1.155Y-4.4696
X1.4947Y-4.472
X1.8147Y-4.048
X1.9587Y-4.536
X2.1827Y-4.4
X2.2627Y-4.4
X2.5587Y-4.256
X2.9827Y-4.264
X2.9827Y-4.336
X3.2227Y-4.072
X3.2227Y-4.272
X3.2867Y-4.272
X3.3507Y-4.272
X3.4147Y-4.144
X4.2467Y-4.368
X4.2627Y-4.56
X4.4787Y-4.232
X4.5667Y-4.264
X4.5667Y-4.304
X4.5907Y-4.232
X5.3267Y-4.232
X6.3827Y-4.272
X6.4387Y-4.248
X6.4787Y-4.416
X9.6707Y-4.088
X9.7987Y-4.16
X9.9187Y-4.128
X10.6627Y-4.224
X12.0227Y-4.304
X12.3827Y-4.36
T2
X0.3567Y-4.754
T3
X1.445Y-3.725
X1.975Y-3.74
X2.525Y-3.725
X3.005Y-3.735
X3.6038Y-3.72
X3.77Y-4.48
X3.97Y-3.74
X4.47Y-3.74
X5.455Y-3.7
X5.67Y-4.33
X5.975Y-3.73
X6.465Y-3.7046
X6.955Y-3.71
X7.435Y-4.3926
X9.385Y-3.675
X10.165Y-4.12
X10.26Y-3.695
X10.66Y-4.375
X11.775Y-3.7
X12.0693Y-4.4307
T4
X4.985Y-3.735
T5
X9.39Y-3.56
T6
X4.7079Y-3.9246
X4.7079Y-3.9954
X4.8654Y-3.9246
X4.8654Y-3.9954
X2.2329Y-3.7956
X2.2329Y-3.8664
X2.3904Y-3.7956
X2.3904Y-3.8664
X4.2329Y-3.9466
X4.2329Y-4.0174
X4.3904Y-3.9466
X4.3904Y-4.0174
X12.2079Y-3.7806
X12.2079Y-3.8514
X12.3654Y-3.7806
X12.3654Y-3.8514
X6.2079Y-3.7696
X6.2079Y-3.8404
X6.3654Y-3.7696
X6.3654Y-3.8404
X5.2079Y-3.9276
X5.2079Y-3.9984
X5.3654Y-3.9276
X5.3654Y-3.9984
X9.2079Y-3.7876
X9.2079Y-3.8584
X9.3654Y-3.7876
X9.3654Y-3.8584
X4.7079Y-3.7606
X4.7079Y-3.8314
X4.8654Y-3.7606
X4.8654Y-3.8314
X2.7329Y-3.7736
X2.7329Y-3.8444
X2.8904Y-3.7736
X2.8904Y-3.8444
X2.2329Y-3.9596
X2.2329Y-4.0304
X2.3904Y-3.9596
X2.3904Y-4.0304
X9.7079Y-3.7656
X9.7079Y-3.8364
X9.8654Y-3.7656
X9.8654Y-3.8364
X10.2079Y-3.9326
X10.2079Y-4.0034
X10.3654Y-3.9326
X10.3654Y-4.0034
X9.2079Y-3.9516
X9.2079Y-4.0224
X9.3654Y-3.9516
X9.3654Y-4.0224
X5.7079Y-3.7666
X5.7079Y-3.8374
X5.8654Y-3.7666
X5.8654Y-3.8374
X8.7079Y-3.9486
X8.7079Y-4.0194
X8.8654Y-3.9486
X8.8654Y-4.0194
X3.2329Y-3.7766
X3.2329Y-3.8474
X3.3904Y-3.7766
X3.3904Y-3.8474
X11.2079Y-3.7746
X11.2079Y-3.8454
X11.3654Y-3.7746
X11.3654Y-3.8454
X10.7079Y-3.7716
X10.7079Y-3.8424
X10.8654Y-3.7716
X10.8654Y-3.8424
X8.7079Y-3.7846
X8.7079Y-3.8554
X8.8654Y-3.7846
X8.8654Y-3.8554
X12.2079Y-3.9446
X12.2079Y-4.0154
X12.3654Y-3.9446
X12.3654Y-4.0154
X6.7079Y-3.9366
X6.7079Y-4.0074
X6.8654Y-3.9366
X6.8654Y-4.0074
X11.7079Y-3.7776
X11.7079Y-3.8484
X11.8654Y-3.7776
X11.8654Y-3.8484
X1.2079Y-3.9536
X1.2079Y-4.0244
X1.3654Y-3.9536
X1.3654Y-4.0244
X3.2329Y-3.9406
X3.2329Y-4.0114
X3.3904Y-3.9406
X3.3904Y-4.0114
X9.7079Y-3.9296
X9.7079Y-4.0004
X9.8654Y-3.9296
X9.8654Y-4.0004
X11.2079Y-3.9386
X11.2079Y-4.0094
X11.3654Y-3.9386
X11.3654Y-4.0094
X6.2079Y-3.9336
X6.2079Y-4.0044
X6.3654Y-3.9336
X6.3654Y-4.0044
X5.7079Y-3.9306
X5.7079Y-4.0014
X5.8654Y-3.9306
X5.8654Y-4.0014
X1.2079Y-3.7896
X1.2079Y-3.8604
X1.3654Y-3.7896
X1.3654Y-3.8604
X10.2079Y-3.7686
X10.2079Y-3.8394
X10.3654Y-3.7686
X10.3654Y-3.8394
X10.7079Y-3.9356
X10.7079Y-4.0064
X10.8654Y-3.9356
X10.8654Y-4.0064
X7.7079Y-3.9426
X7.7079Y-4.0134
X7.8654Y-3.9426
X7.8654Y-4.0134
X6.7079Y-3.7726
X6.7079Y-3.8434
X6.8654Y-3.7726
X6.8654Y-3.8434
X3.7079Y-3.7796
X3.7079Y-3.8504
X3.8654Y-3.7796
X3.8654Y-3.8504
X2.7329Y-3.9376
X2.7329Y-4.0084
X2.8904Y-3.9376
X2.8904Y-4.0084
X1.7329Y-3.7676
X1.7329Y-3.8384
X1.8904Y-3.7676
X1.8904Y-3.8384
X7.2079Y-3.9396
X7.2079Y-4.0104
X7.3654Y-3.9396
X7.3654Y-4.0104
X11.7079Y-3.9416
X11.7079Y-4.0124
X11.8654Y-3.9416
X11.8654Y-4.0124
X5.2079Y-3.7636
X5.2079Y-3.8344
X5.3654Y-3.7636
X5.3654Y-3.8344
X8.2079Y-3.7816
X8.2079Y-3.8524
X8.3654Y-3.7816
X8.3654Y-3.8524
X4.2329Y-3.7826
X4.2329Y-3.8534
X4.3904Y-3.7826
X4.3904Y-3.8534
X3.7079Y-3.9436
X3.7079Y-4.0144
X3.8654Y-3.9436
X3.8654Y-4.0144
X1.7329Y-3.9316
X1.7329Y-4.0024
X1.8904Y-3.9316
X1.8904Y-4.0024
X12.7079Y-3.9476
X12.7079Y-4.0184
X12.8654Y-3.9476
X12.8654Y-4.0184
X8.2079Y-3.9456
X8.2079Y-4.0164
X8.3654Y-3.9456
X8.3654Y-4.0164
X12.7079Y-3.7836
X12.7079Y-3.8544
X12.8654Y-3.7836
X12.8654Y-3.8544
X7.7079Y-3.7786
X7.7079Y-3.8494
X7.8654Y-3.7786
X7.8654Y-3.8494
X7.2079Y-3.7756
X7.2079Y-3.8464
X7.3654Y-3.7756
X7.3654Y-3.8464
T7
X11.1817Y-4.454
X11.2817Y-4.454
X11.3817Y-4.454
X11.4817Y-4.454
X11.5817Y-4.454
X11.6817Y-4.454
X11.7817Y-4.454
X11.8817Y-4.454
X11.9817Y-4.454
X5.4925Y-3.5375
X5.5925Y-3.5375
X5.6925Y-3.5375
X5.7925Y-3.5375
X5.8925Y-3.5375
X5.9925Y-3.5375
X6.0925Y-3.5375
X6.1925Y-3.5375
X6.2925Y-3.5375
X6.3925Y-3.5375
X7.0817Y-4.454
X7.1817Y-4.454
X7.2817Y-4.454
X7.3817Y-4.454
X7.4817Y-4.454
X7.5817Y-4.454
X7.6817Y-4.454
X7.7817Y-4.454
X7.8817Y-4.454
X9.1067Y-4.454
X9.2067Y-4.454
X9.3067Y-4.454
X9.4067Y-4.454
X9.5067Y-4.454
X9.6067Y-4.454
X9.7067Y-4.454
X9.8067Y-4.454
X9.9067Y-4.454
X0.8067Y-4.379
X0.9067Y-4.379
X1.0067Y-4.379
X1.1067Y-4.379
X1.2067Y-4.379
X1.3067Y-4.379
X1.4067Y-4.379
X1.5067Y-4.379
X1.6067Y-4.379
X7.3925Y-3.535
X7.4925Y-3.535
X7.5925Y-3.535
X7.6925Y-3.535
X7.7925Y-3.535
X7.8925Y-3.535
X7.9925Y-3.535
X8.0925Y-3.535
X8.1925Y-3.535
X8.2925Y-3.535
X2.8817Y-4.454
X2.9817Y-4.454
X3.0817Y-4.454
X3.1817Y-4.454
X3.2817Y-4.454
X3.3817Y-4.454
X3.4817Y-4.454
X3.5817Y-4.454
X3.6817Y-4.454
X2.4925Y-3.5375
X2.5925Y-3.5375
X2.6925Y-3.5375
X2.7925Y-3.5375
X2.8925Y-3.5375
X2.9925Y-3.5375
X3.0925Y-3.5375
X3.1925Y-3.5375
X3.2925Y-3.5375
X3.3925Y-3.5375
X5.0067Y-4.454
X5.1067Y-4.454
X5.2067Y-4.454
X5.3067Y-4.454
X5.4067Y-4.454
X5.5067Y-4.454
X5.6067Y-4.454
X5.7067Y-4.454
X5.8067Y-4.454
X11.3925Y-3.5375
X11.4925Y-3.5375
X11.5925Y-3.5375
X11.6925Y-3.5375
X11.7925Y-3.5375
X11.8925Y-3.5375
X11.9925Y-3.5375
X12.0925Y-3.5375
X12.1925Y-3.5375
X12.2925Y-3.5375
T8
X5.9317Y-4.304
X5.9317Y-4.604
X6.0317Y-4.304
X6.0317Y-4.604
X6.1317Y-4.304
X6.1317Y-4.604
X6.2317Y-4.304
X6.2317Y-4.604
X6.3317Y-4.304
X6.3317Y-4.604
X6.4317Y-4.304
X6.4317Y-4.604
X6.5317Y-4.304
X6.5317Y-4.604
X6.6317Y-4.304
X6.6317Y-4.604
X0.1817Y-3.634
X0.1817Y-3.774
X10.0817Y-4.304
X10.0817Y-4.604
X10.1817Y-4.304
X10.1817Y-4.604
X10.2817Y-4.304
X10.2817Y-4.604
X10.3817Y-4.304
X10.3817Y-4.604
X10.4817Y-4.304
X10.4817Y-4.604
X10.5817Y-4.304
X10.5817Y-4.604
X10.6817Y-4.304
X10.6817Y-4.604
X10.7817Y-4.304
X10.7817Y-4.604
X3.8067Y-4.304
X3.8067Y-4.604
X3.9067Y-4.304
X3.9067Y-4.604
X4.0067Y-4.304
X4.0067Y-4.604
X4.1067Y-4.304
X4.1067Y-4.604
X4.2067Y-4.304
X4.2067Y-4.604
X4.3067Y-4.304
X4.3067Y-4.604
X4.4067Y-4.304
X4.4067Y-4.604
X4.5067Y-4.304
X4.5067Y-4.604
X12.1317Y-4.304
X12.1317Y-4.604
X12.2317Y-4.304
X12.2317Y-4.604
X12.3317Y-4.304
X12.3317Y-4.604
X12.4317Y-4.304
X12.4317Y-4.604
X12.5317Y-4.304
X12.5317Y-4.604
X12.6317Y-4.304
X12.6317Y-4.604
X12.7317Y-4.304
X12.7317Y-4.604
X12.8317Y-4.304
X12.8317Y-4.604
X1.7317Y-4.304
X1.7317Y-4.604
X1.8317Y-4.304
X1.8317Y-4.604
X1.9317Y-4.304
X1.9317Y-4.604
X2.0317Y-4.304
X2.0317Y-4.604
X2.1317Y-4.304
X2.1317Y-4.604
X2.2317Y-4.304
X2.2317Y-4.604
X2.3317Y-4.304
X2.3317Y-4.604
X2.4317Y-4.304
X2.4317Y-4.604
X8.0067Y-4.304
X8.0067Y-4.604
X8.1067Y-4.304
X8.1067Y-4.604
X8.2067Y-4.304
X8.2067Y-4.604
X8.3067Y-4.304
X8.3067Y-4.604
X8.4067Y-4.304
X8.4067Y-4.604
X8.5067Y-4.304
X8.5067Y-4.604
X8.6067Y-4.304
X8.6067Y-4.604
X8.7067Y-4.304
X8.7067Y-4.604
T9
X0.03Y-4.51
X0.33Y-4.51
X0.03Y-4.41
X0.33Y-4.41
X0.03Y-4.31
X0.33Y-4.31
X0.03Y-4.21
X0.33Y-4.21
T10
X0.5817Y-4.054
X0.5817Y-4.204
X0.5817Y-4.129
T11
X-1.2433Y-4.754
X-1.1433Y-4.754
X-1.0433Y-4.754
X-0.9433Y-4.754
X-0.8433Y-3.954
X-0.8433Y-4.754
X-0.7433Y-3.954
X-0.7433Y-4.754
X-0.6433Y-3.954
X-0.6433Y-4.754
X-0.5433Y-3.954
X-0.5433Y-4.754
X-0.4433Y-3.954
X-0.4433Y-4.754
X-0.3433Y-3.954
X-0.3433Y-4.754
X-0.2433Y-3.954
X-0.2433Y-4.754
X-0.1433Y-3.954
X-0.1433Y-4.754
X-0.0433Y-3.954
X-0.0433Y-4.754
X0.0567Y-3.954
X0.0567Y-4.754
X0.1567Y-3.954
X0.1567Y-4.754
X0.2567Y-3.954
X0.2567Y-4.754
X-0.4933Y-3.629
X-0.3933Y-3.629
X-0.2933Y-3.629
X-1.405Y-4.05
X-1.405Y-4.65
X-1.305Y-4.05
X-1.305Y-4.65
X-1.205Y-4.05
X-1.205Y-4.65
X-1.105Y-4.05
X-1.105Y-4.65
X-1.005Y-4.05
X-1.005Y-4.65
X-0.905Y-4.05
X-0.905Y-4.65
X-0.805Y-4.05
X-0.805Y-4.65
X-0.705Y-4.05
X-0.705Y-4.65
X-0.605Y-4.05
X-0.605Y-4.65
X-0.505Y-4.05
X-0.505Y-4.65
X-0.405Y-4.05
X-0.405Y-4.65
X-0.305Y-4.05
X-0.305Y-4.65
X-0.205Y-4.05
X-0.205Y-4.65
X-0.105Y-4.05
X-0.105Y-4.65
T12
X-1.45Y-3.51
X-0.95Y-3.51
X12.5417Y-3.609
X12.5417Y-4.109
X-0.12Y-3.51
X0.38Y-3.51
X9.5417Y-3.609
X9.5417Y-4.109
X6.7567Y-4.474
X6.7567Y-4.584
X2.5417Y-3.609
X2.5417Y-4.109
X12.0417Y-3.609
X12.0417Y-4.109
X10.5417Y-3.609
X10.5417Y-4.109
X2.5567Y-4.474
X2.5567Y-4.584
X13.1417Y-3.509
X13.1417Y-4.009
X4.55Y-3.609
X4.55Y-4.109
X1.0417Y-3.63
X1.0417Y-4.13
X5.0417Y-3.609
X5.0417Y-4.109
X7.5417Y-3.609
X7.5417Y-4.109
X8.5417Y-3.609
X8.5417Y-4.109
X0.8067Y-3.679
X0.8067Y-3.779
X0.8067Y-3.879
X3.5417Y-3.609
X3.5417Y-4.109
X1.0417Y-4.26
X1.0417Y-4.76
X4.0417Y-3.609
X4.0417Y-4.109
X6.0417Y-3.609
X6.0417Y-4.109
X-0.77Y-3.51
X-0.27Y-3.51
X0.54Y-3.509
X1.04Y-3.509
X10.9067Y-4.499
X10.9067Y-4.609
X2.0417Y-3.609
X2.0417Y-4.109
X8.0417Y-3.609
X8.0417Y-4.109
X10.0417Y-3.609
X10.0417Y-4.109
X5.5417Y-3.609
X5.5417Y-4.109
X12.9817Y-4.299
X12.9817Y-4.409
X13.0417Y-3.609
X13.0417Y-4.109
X4.6317Y-4.474
X4.6317Y-4.584
X11.5417Y-3.609
X11.5417Y-4.109
X9.0417Y-3.609
X9.0417Y-4.109
X-0.5983Y-3.779
X-0.4883Y-3.779
X7.0417Y-3.609
X7.0417Y-4.109
X1.5417Y-3.609
X1.5417Y-4.109
X8.8317Y-4.499
X8.8317Y-4.609
X11.0417Y-3.609
X11.0417Y-4.109
X6.5417Y-3.609
X6.5417Y-4.109
X0.5567Y-3.679
X0.5567Y-3.779
X0.5567Y-3.879
X3.0417Y-3.609
X3.0417Y-4.109
T13
X-1.3683Y-3.68
X-1.3683Y-3.8769
X0.6567Y-4.629
X0.8535Y-4.629
X1.2567Y-4.629
X1.4535Y-4.629
T14
X13.0317Y-4.649
X-0.86Y-3.69
T0
M30
