M48
; DRILL file {KiCad (5.1.5)-3} date 3/16/2020 1:31:08 PM
; FORMAT={2:4/ absolute / inch / suppress leading zeros}
; #@! TF.CreationDate,2020-03-16T13:31:08-07:00
; #@! TF.GenerationSoftware,Kicad,Pcbnew,(5.1.5)-3
; #@! TF.FileFunction,Plated,1,2,PTH
FMAT,2
INCH,TZ
T1C0.0130
T2C0.0138
T3C0.0157
T4C0.0200
T5C0.0300
T6C0.0307
T7C0.0315
T8C0.0320
T9C0.0354
T10C0.0380
T11C0.0394
T12C0.0400
T13C0.0512
T14C0.1562
%
G90
G05
T1
X11550Y-44696
X14947Y-44720
X18147Y-40480
X19587Y-45360
X21827Y-44000
X22627Y-44000
X25587Y-42560
X29827Y-42640
X29827Y-43360
X32227Y-40720
X32227Y-42720
X32867Y-42720
X33507Y-42720
X34147Y-41440
X42467Y-43680
X42627Y-45600
X44787Y-42320
X45667Y-42640
X45667Y-43040
X45907Y-42320
X53267Y-42320
X63827Y-42720
X64387Y-42480
X64787Y-44160
X96707Y-40880
X97987Y-41600
X99187Y-41280
X106627Y-42240
X120227Y-43040
X123827Y-43600
T2
X3567Y-47540
T3
X14450Y-37250
X19750Y-37400
X25250Y-37250
X30050Y-37350
X36038Y-37200
X37700Y-44800
X39700Y-37400
X44700Y-37400
X54550Y-37000
X56700Y-43300
X59750Y-37300
X64650Y-37046
X69550Y-37100
X74350Y-43926
X93850Y-36750
X101650Y-41200
X102600Y-36950
X106600Y-43750
X117750Y-37000
X120693Y-44307
T4
X49850Y-37350
T5
X93900Y-35600
T6
X122079Y-37806
X122079Y-38514
X123654Y-37806
X123654Y-38514
X57079Y-37666
X57079Y-38374
X58654Y-37666
X58654Y-38374
X52079Y-37636
X52079Y-38344
X53654Y-37636
X53654Y-38344
X82079Y-39456
X82079Y-40164
X83654Y-39456
X83654Y-40164
X17329Y-39316
X17329Y-40024
X18904Y-39316
X18904Y-40024
X97079Y-39296
X97079Y-40004
X98654Y-39296
X98654Y-40004
X27329Y-39376
X27329Y-40084
X28904Y-39376
X28904Y-40084
X77079Y-37786
X77079Y-38494
X78654Y-37786
X78654Y-38494
X122079Y-39446
X122079Y-40154
X123654Y-39446
X123654Y-40154
X62079Y-37696
X62079Y-38404
X63654Y-37696
X63654Y-38404
X47079Y-37606
X47079Y-38314
X48654Y-37606
X48654Y-38314
X87079Y-37846
X87079Y-38554
X88654Y-37846
X88654Y-38554
X27329Y-37736
X27329Y-38444
X28904Y-37736
X28904Y-38444
X107079Y-39356
X107079Y-40064
X108654Y-39356
X108654Y-40064
X77079Y-39426
X77079Y-40134
X78654Y-39426
X78654Y-40134
X127079Y-37836
X127079Y-38544
X128654Y-37836
X128654Y-38544
X57079Y-39306
X57079Y-40014
X58654Y-39306
X58654Y-40014
X32329Y-37766
X32329Y-38474
X33904Y-37766
X33904Y-38474
X87079Y-39486
X87079Y-40194
X88654Y-39486
X88654Y-40194
X107079Y-37716
X107079Y-38424
X108654Y-37716
X108654Y-38424
X112079Y-37746
X112079Y-38454
X113654Y-37746
X113654Y-38454
X127079Y-39476
X127079Y-40184
X128654Y-39476
X128654Y-40184
X42329Y-37826
X42329Y-38534
X43904Y-37826
X43904Y-38534
X62079Y-39336
X62079Y-40044
X63654Y-39336
X63654Y-40044
X47079Y-39246
X47079Y-39954
X48654Y-39246
X48654Y-39954
X17329Y-37676
X17329Y-38384
X18904Y-37676
X18904Y-38384
X102079Y-39326
X102079Y-40034
X103654Y-39326
X103654Y-40034
X22329Y-39596
X22329Y-40304
X23904Y-39596
X23904Y-40304
X112079Y-39386
X112079Y-40094
X113654Y-39386
X113654Y-40094
X12079Y-39536
X12079Y-40244
X13654Y-39536
X13654Y-40244
X117079Y-37776
X117079Y-38484
X118654Y-37776
X118654Y-38484
X72079Y-37756
X72079Y-38464
X73654Y-37756
X73654Y-38464
X72079Y-39396
X72079Y-40104
X73654Y-39396
X73654Y-40104
X32329Y-39406
X32329Y-40114
X33904Y-39406
X33904Y-40114
X22329Y-37956
X22329Y-38664
X23904Y-37956
X23904Y-38664
X92079Y-39516
X92079Y-40224
X93654Y-39516
X93654Y-40224
X102079Y-37686
X102079Y-38394
X103654Y-37686
X103654Y-38394
X52079Y-39276
X52079Y-39984
X53654Y-39276
X53654Y-39984
X67079Y-37726
X67079Y-38434
X68654Y-37726
X68654Y-38434
X37079Y-37796
X37079Y-38504
X38654Y-37796
X38654Y-38504
X92079Y-37876
X92079Y-38584
X93654Y-37876
X93654Y-38584
X117079Y-39416
X117079Y-40124
X118654Y-39416
X118654Y-40124
X42329Y-39466
X42329Y-40174
X43904Y-39466
X43904Y-40174
X67079Y-39366
X67079Y-40074
X68654Y-39366
X68654Y-40074
X37079Y-39436
X37079Y-40144
X38654Y-39436
X38654Y-40144
X82079Y-37816
X82079Y-38524
X83654Y-37816
X83654Y-38524
X12079Y-37896
X12079Y-38604
X13654Y-37896
X13654Y-38604
X97079Y-37656
X97079Y-38364
X98654Y-37656
X98654Y-38364
T7
X54925Y-35375
X55925Y-35375
X56925Y-35375
X57925Y-35375
X58925Y-35375
X59925Y-35375
X60925Y-35375
X61925Y-35375
X62925Y-35375
X63925Y-35375
X50067Y-44540
X51067Y-44540
X52067Y-44540
X53067Y-44540
X54067Y-44540
X55067Y-44540
X56067Y-44540
X57067Y-44540
X58067Y-44540
X91067Y-44540
X92067Y-44540
X93067Y-44540
X94067Y-44540
X95067Y-44540
X96067Y-44540
X97067Y-44540
X98067Y-44540
X99067Y-44540
X73925Y-35350
X74925Y-35350
X75925Y-35350
X76925Y-35350
X77925Y-35350
X78925Y-35350
X79925Y-35350
X80925Y-35350
X81925Y-35350
X82925Y-35350
X111817Y-44540
X112817Y-44540
X113817Y-44540
X114817Y-44540
X115817Y-44540
X116817Y-44540
X117817Y-44540
X118817Y-44540
X119817Y-44540
X24925Y-35375
X25925Y-35375
X26925Y-35375
X27925Y-35375
X28925Y-35375
X29925Y-35375
X30925Y-35375
X31925Y-35375
X32925Y-35375
X33925Y-35375
X28817Y-44540
X29817Y-44540
X30817Y-44540
X31817Y-44540
X32817Y-44540
X33817Y-44540
X34817Y-44540
X35817Y-44540
X36817Y-44540
X8067Y-43790
X9067Y-43790
X10067Y-43790
X11067Y-43790
X12067Y-43790
X13067Y-43790
X14067Y-43790
X15067Y-43790
X16067Y-43790
X113925Y-35375
X114925Y-35375
X115925Y-35375
X116925Y-35375
X117925Y-35375
X118925Y-35375
X119925Y-35375
X120925Y-35375
X121925Y-35375
X122925Y-35375
X70817Y-44540
X71817Y-44540
X72817Y-44540
X73817Y-44540
X74817Y-44540
X75817Y-44540
X76817Y-44540
X77817Y-44540
X78817Y-44540
T8
X100817Y-43040
X100817Y-46040
X101817Y-43040
X101817Y-46040
X102817Y-43040
X102817Y-46040
X103817Y-43040
X103817Y-46040
X104817Y-43040
X104817Y-46040
X105817Y-43040
X105817Y-46040
X106817Y-43040
X106817Y-46040
X107817Y-43040
X107817Y-46040
X1817Y-36340
X1817Y-37740
X121317Y-43040
X121317Y-46040
X122317Y-43040
X122317Y-46040
X123317Y-43040
X123317Y-46040
X124317Y-43040
X124317Y-46040
X125317Y-43040
X125317Y-46040
X126317Y-43040
X126317Y-46040
X127317Y-43040
X127317Y-46040
X128317Y-43040
X128317Y-46040
X59317Y-43040
X59317Y-46040
X60317Y-43040
X60317Y-46040
X61317Y-43040
X61317Y-46040
X62317Y-43040
X62317Y-46040
X63317Y-43040
X63317Y-46040
X64317Y-43040
X64317Y-46040
X65317Y-43040
X65317Y-46040
X66317Y-43040
X66317Y-46040
X17317Y-43040
X17317Y-46040
X18317Y-43040
X18317Y-46040
X19317Y-43040
X19317Y-46040
X20317Y-43040
X20317Y-46040
X21317Y-43040
X21317Y-46040
X22317Y-43040
X22317Y-46040
X23317Y-43040
X23317Y-46040
X24317Y-43040
X24317Y-46040
X38067Y-43040
X38067Y-46040
X39067Y-43040
X39067Y-46040
X40067Y-43040
X40067Y-46040
X41067Y-43040
X41067Y-46040
X42067Y-43040
X42067Y-46040
X43067Y-43040
X43067Y-46040
X44067Y-43040
X44067Y-46040
X45067Y-43040
X45067Y-46040
X80067Y-43040
X80067Y-46040
X81067Y-43040
X81067Y-46040
X82067Y-43040
X82067Y-46040
X83067Y-43040
X83067Y-46040
X84067Y-43040
X84067Y-46040
X85067Y-43040
X85067Y-46040
X86067Y-43040
X86067Y-46040
X87067Y-43040
X87067Y-46040
T9
X300Y-45100
X3300Y-45100
X300Y-43100
X3300Y-43100
X300Y-42100
X3300Y-42100
X300Y-44100
X3300Y-44100
T10
X5817Y-40540
X5817Y-41290
X5817Y-42040
T11
X-12433Y-47540
X-11433Y-47540
X-10433Y-47540
X-9433Y-47540
X-8433Y-39540
X-8433Y-47540
X-7433Y-39540
X-7433Y-47540
X-6433Y-39540
X-6433Y-47540
X-5433Y-39540
X-5433Y-47540
X-4433Y-39540
X-4433Y-47540
X-3433Y-39540
X-3433Y-47540
X-2433Y-39540
X-2433Y-47540
X-1433Y-39540
X-1433Y-47540
X-433Y-39540
X-433Y-47540
X567Y-39540
X567Y-47540
X1567Y-39540
X1567Y-47540
X2567Y-39540
X2567Y-47540
X-14050Y-40500
X-14050Y-46500
X-13050Y-40500
X-13050Y-46500
X-12050Y-40500
X-12050Y-46500
X-11050Y-40500
X-11050Y-46500
X-10050Y-40500
X-10050Y-46500
X-9050Y-40500
X-9050Y-46500
X-8050Y-40500
X-8050Y-46500
X-7050Y-40500
X-7050Y-46500
X-6050Y-40500
X-6050Y-46500
X-5050Y-40500
X-5050Y-46500
X-4050Y-40500
X-4050Y-46500
X-3050Y-40500
X-3050Y-46500
X-2050Y-40500
X-2050Y-46500
X-1050Y-40500
X-1050Y-46500
X-4933Y-36290
X-3933Y-36290
X-2933Y-36290
T12
X-1200Y-35100
X3800Y-35100
X5400Y-35090
X10400Y-35090
X129817Y-42990
X129817Y-44090
X-7700Y-35100
X-2700Y-35100
X30417Y-36090
X30417Y-41090
X55417Y-36090
X55417Y-41090
X15417Y-36090
X15417Y-41090
X75417Y-36090
X75417Y-41090
X120417Y-36090
X120417Y-41090
X35417Y-36090
X35417Y-41090
X10417Y-36300
X10417Y-41300
X109067Y-44990
X109067Y-46090
X25417Y-36090
X25417Y-41090
X8067Y-36790
X8067Y-37790
X8067Y-38790
X105417Y-36090
X105417Y-41090
X90417Y-36090
X90417Y-41090
X-14500Y-35100
X-9500Y-35100
X45500Y-36090
X45500Y-41090
X70417Y-36090
X70417Y-41090
X50417Y-36090
X50417Y-41090
X115417Y-36090
X115417Y-41090
X95417Y-36090
X95417Y-41090
X10417Y-42600
X10417Y-47600
X46317Y-44740
X46317Y-45840
X65417Y-36090
X65417Y-41090
X25567Y-44740
X25567Y-45840
X85417Y-36090
X85417Y-41090
X130417Y-36090
X130417Y-41090
X100417Y-36090
X100417Y-41090
X20417Y-36090
X20417Y-41090
X60417Y-36090
X60417Y-41090
X88317Y-44990
X88317Y-46090
X5567Y-36790
X5567Y-37790
X5567Y-38790
X110417Y-36090
X110417Y-41090
X125417Y-36090
X125417Y-41090
X131417Y-35090
X131417Y-40090
X-5983Y-37790
X-4883Y-37790
X40417Y-36090
X40417Y-41090
X67567Y-44740
X67567Y-45840
X80417Y-36090
X80417Y-41090
T13
X-13683Y-36800
X-13683Y-38769
X12567Y-46290
X14535Y-46290
X6567Y-46290
X8535Y-46290
T14
X-8600Y-36900
X130317Y-46490
T0
M30
